<svg width="26" height="26" viewBox="0 0 26 26" fill="none" xmlns="http://www.w3.org/2000/svg">
<path d="M23.0568 8.63607H2.94325C2.65758 8.62944 2.37427 8.69652 2.11431 8.83234C1.85434 8.96815 1.62438 9.16923 1.44147 9.42066C1.25855 9.6721 1.12736 9.96745 1.05761 10.2848C0.98787 10.6022 0.981358 10.9335 1.03856 11.2542L3.13372 23.2541C3.22277 23.7543 3.46213 24.2029 3.81015 24.5219C4.15818 24.8408 4.59281 25.0098 5.03841 24.9995H20.9616C21.4072 25.0098 21.8418 24.8408 22.1898 24.5219C22.5379 24.2029 22.7772 23.7543 22.8663 23.2541L24.9614 11.2542C25.0186 10.9335 25.0121 10.6022 24.9424 10.2848C24.8726 9.96745 24.7415 9.6721 24.5585 9.42066C24.3756 9.16923 24.1457 8.96815 23.8857 8.83234C23.6257 8.69652 23.3424 8.62944 23.0568 8.63607Z" stroke="#FFD600" stroke-width="2" stroke-linecap="round" stroke-linejoin="round"/>
<path d="M16.8094 1L20.6187 8.63627" stroke="#FFD600" stroke-width="2" stroke-linecap="round" stroke-linejoin="round"/>
<path d="M5.38123 8.63627L9.1906 1" stroke="#FFD600" stroke-width="2" stroke-linecap="round" stroke-linejoin="round"/>
</svg>
