<svg width="26" height="26" viewBox="0 0 26 26" fill="none" xmlns="http://www.w3.org/2000/svg">
<path d="M13 14.8462C15.549 14.8462 17.6154 12.7799 17.6154 10.2309C17.6154 7.68186 15.549 5.61548 13 5.61548C10.451 5.61548 8.38458 7.68186 8.38458 10.2309C8.38458 12.7799 10.451 14.8462 13 14.8462Z" stroke="#FFD600" stroke-width="2" stroke-linecap="round" stroke-linejoin="round"/>
<path d="M5.11694 22.046C5.94077 20.6938 7.09862 19.5762 8.47917 18.8006C9.85972 18.0251 11.4166 17.6178 13 17.6178C14.5835 17.6178 16.1403 18.0251 17.5209 18.8006C18.9014 19.5762 20.0593 20.6938 20.8831 22.046" stroke="#FFD600" stroke-width="2" stroke-linecap="round" stroke-linejoin="round"/>
<path d="M13 25C19.6274 25 25 19.6274 25 13C25 6.37258 19.6274 1 13 1C6.37258 1 1 6.37258 1 13C1 19.6274 6.37258 25 13 25Z" stroke="#FFD600" stroke-width="2" stroke-linecap="round" stroke-linejoin="round"/>
</svg>
